<?xml version="1.0" standalone="no"?>
<!DOCTYPE svg PUBLIC "-//W3C//DTD SVG 20010904//EN"
 "http://www.w3.org/TR/2001/REC-SVG-20010904/DTD/svg10.dtd">
<svg version="1.0" xmlns="http://www.w3.org/2000/svg"
 width="400.000000pt" height="400.000000pt" viewBox="0 0 400.000000 400.000000"
 preserveAspectRatio="xMidYMid meet">
<metadata>
Created by potrace 1.14, written by Peter Selinger 2001-2017
</metadata>
<g transform="translate(0.000000,400.000000) scale(0.100000,-0.100000)"
fill="#000000" stroke="none">
<path d="M0 3809 c0 -115 4 -188 9 -184 17 10 24 -18 8 -30 -16 -11 -17 -81
-15 -846 2 -681 3 -760 8 -429 3 223 7 406 8 406 1 1 9 5 18 8 13 5 15 1 12
-23 -3 -20 -1 -28 8 -24 7 3 15 23 19 46 9 73 10 629 1 715 -7 70 -6 82 6 82
9 0 18 13 22 33 6 30 8 31 19 12 12 -19 17 -409 9 -625 -2 -47 -3 -92 -3 -100
0 -8 -1 -65 -2 -127 -2 -62 0 -110 3 -107 3 3 10 33 15 67 6 36 15 61 21 60 7
-1 20 7 29 17 10 11 24 20 31 20 7 0 10 8 7 19 -3 11 0 28 6 38 9 16 10 16 11
-7 1 -23 2 -23 9 -5 11 27 17 -33 20 -187 l2 -118 -85 0 c-115 0 -119 -17 -6
-26 l90 -7 1 -156 c1 -86 5 -190 9 -231 5 -53 7 -7 8 158 l2 232 51 0 c45 0
50 -2 44 -17 -27 -68 -45 -132 -55 -200 -6 -43 -13 -89 -16 -103 -2 -14 -4
-81 -5 -150 -1 -112 2 -143 17 -230 2 -14 7 -45 10 -69 3 -24 13 -60 22 -80 9
-20 16 -38 17 -41 0 -3 4 -11 9 -19 6 -10 5 -12 -2 -7 -8 5 -10 2 -6 -8 3 -9
9 -14 14 -11 4 2 5 -7 2 -20 -2 -14 0 -25 6 -25 6 0 14 -9 17 -20 4 -11 11
-17 17 -14 6 4 5 -3 -2 -16 -7 -12 -8 -20 -3 -17 5 3 15 -3 22 -15 10 -16 10
-19 -1 -12 -14 8 9 -25 25 -37 5 -3 9 -10 9 -15 1 -18 10 -34 17 -30 4 3 8 -5
8 -17 2 -23 37 -75 65 -95 10 -7 16 -17 13 -22 -3 -5 43 -58 102 -118 163
-163 316 -258 553 -342 112 -40 134 -61 83 -81 -43 -16 -165 -74 -295 -140
-98 -50 -121 -58 -138 -49 -13 7 -135 11 -359 11 l-339 -1 -10 48 -10 47 -1
-48 -1 -48 -79 3 -80 3 -3 110 c-2 61 -5 314 -6 564 -1 250 -5 457 -7 460 -3
2 -5 -361 -5 -807 0 -447 3 -812 8 -812 7 0 9 57 11 311 l1 146 81 2 81 2 -4
-165 c-2 -106 1 -164 7 -163 6 1 11 -10 13 -25 2 -16 -2 -28 -8 -28 -6 0 -8 5
-5 10 3 6 1 10 -4 10 -15 0 -14 -13 1 -29 10 -11 10 -13 1 -7 -7 4 -14 2 -14
-3 -1 -6 -3 -15 -4 -21 -1 -5 -3 -15 -4 -22 0 -6 -4 -8 -8 -4 -10 10 -12 36
-3 36 4 0 6 10 2 22 -5 21 -6 21 -13 2 -4 -10 -8 -14 -9 -9 -6 38 -5 53 2 49
4 -3 8 -1 8 4 0 6 -7 13 -16 16 -8 3 -12 10 -9 16 3 5 2 10 -4 10 -5 0 -8 -16
-7 -35 2 -19 -1 -35 -5 -35 -5 0 -9 -20 -9 -45 0 -45 0 -45 35 -45 28 0 38 5
47 25 6 14 15 25 20 25 5 0 4 -9 -2 -19 -5 -11 -10 -22 -10 -25 0 -3 48 -6
108 -6 l107 1 40 54 c22 30 43 55 46 55 3 0 13 -16 22 -35 32 -66 60 -75 250
-75 l167 0 0 190 c0 105 3 190 6 190 4 0 26 -12 50 -28 l43 -27 1 -162 0 -163
278 1 c218 0 273 3 258 12 -10 7 -44 28 -75 48 -108 69 -347 217 -444 274 -69
41 -94 61 -85 67 7 4 104 54 216 109 l202 102 39 -45 c21 -24 61 -56 87 -70
59 -32 206 -74 289 -83 85 -9 137 -25 156 -48 11 -14 22 -18 35 -13 10 4 16 4
12 1 -11 -11 36 -52 91 -79 62 -30 65 -30 55 -14 -4 7 -3 8 5 4 6 -4 9 -11 6
-16 -3 -5 4 -12 15 -15 18 -6 19 -9 8 -23 -10 -12 -10 -14 -1 -8 7 4 21 2 30
-3 10 -6 14 -11 9 -11 -6 0 2 -12 17 -28 27 -28 29 -43 9 -79 -7 -13 -10 -23
-6 -23 4 0 0 -8 -10 -19 -15 -16 -15 -19 -1 -31 9 -7 15 -8 15 -2 0 6 -5 12
-10 14 -6 2 -1 9 10 16 11 7 19 9 18 5 0 -5 2 -16 6 -25 8 -17 60 -18 877 -18
l870 0 -2 160 c-1 129 -3 160 -15 160 -7 0 -17 12 -20 27 -4 16 -13 33 -20 38
-13 10 -17 27 -15 58 1 13 10 17 37 17 24 0 34 4 31 13 -2 6 -18 12 -35 11
-36 -1 -42 10 -37 76 1 25 3 53 4 63 1 10 10 17 24 18 15 1 17 3 6 6 -21 5
-32 43 -17 60 7 9 7 13 0 13 -10 0 -10 95 -1 125 4 12 -29 76 -45 88 -7 6 -4
7 7 3 10 -3 21 -6 23 -6 3 0 2 -5 -2 -12 -4 -7 -3 -8 4 -4 9 5 9 13 1 27 -6
12 -8 23 -5 27 3 3 6 0 6 -7 0 -7 5 -9 10 -6 6 4 8 10 5 15 -3 5 -1 11 4 15 6
3 8 -4 6 -16 -3 -13 1 -29 8 -38 10 -12 9 -13 -2 -6 -11 6 -13 4 -8 -8 3 -9 2
-19 -3 -22 -16 -10 -11 -23 8 -20 9 2 23 4 30 4 13 1 17 33 5 45 -11 10 -12
37 -2 30 6 -3 9 47 8 125 0 72 -4 133 -9 136 -13 8 -10 145 3 145 8 0 7 3 -2
9 -9 6 -10 11 -2 15 18 12 13 39 -5 32 -14 -5 -15 -4 -4 9 10 12 10 15 -4 15
-9 0 -16 8 -16 18 1 21 25 54 33 45 4 -3 7 9 7 28 0 19 -5 40 -12 47 -8 8 -8
15 1 26 7 9 9 21 5 28 -12 20 -12 148 1 148 7 0 7 3 0 8 -6 4 -11 23 -12 42
-2 31 -1 32 7 10 5 -15 8 309 8 775 0 440 -4 791 -9 780 -5 -14 -8 -15 -8 -4
-1 8 4 20 9 25 7 7 6 19 -2 37 -17 35 -38 43 -39 14 0 -19 -2 -18 -12 8 -11
28 -12 23 -18 -55 l-5 -85 -3 105 c-1 66 -5 98 -11 85 -4 -11 -5 -80 -3 -154
5 -112 3 -132 -8 -126 -11 6 -12 5 -1 -6 6 -7 12 -27 11 -43 -1 -30 -1 -30 -9
-6 l-8 25 -1 -25 c0 -14 3 -31 8 -39 11 -17 3 -43 -10 -35 -5 3 -9 -23 -9 -57
0 -49 3 -59 13 -51 10 8 13 6 14 -8 1 -11 -3 -19 -10 -17 -7 1 -11 -17 -12
-50 -1 -28 2 -50 7 -47 4 3 7 20 6 39 -1 19 2 38 5 42 7 6 13 -85 8 -117 -1
-8 -2 -24 -1 -35 1 -11 1 -27 1 -35 -1 -8 -1 -31 -1 -50 0 -30 -2 -32 -11 -17
-7 12 -14 15 -22 8 -9 -7 -11 144 -9 635 3 581 2 644 -12 644 -14 0 -16 -36
-16 -329 l0 -330 -147 -3 c-82 -2 -160 -2 -175 0 l-28 3 0 330 0 329 -63 0
c-66 0 -69 -2 -282 -126 -22 -13 -83 -49 -135 -79 -52 -31 -115 -69 -140 -85
-25 -16 -58 -37 -74 -46 -38 -21 -271 -189 -313 -225 -32 -27 -33 -27 -90 -14
-166 38 -538 56 -703 35 -41 -5 -98 -12 -126 -14 l-51 -4 -2 84 c-2 78 -1 84
18 84 18 0 19 5 16 68 -5 75 -23 152 -36 152 -15 0 -9 24 10 48 11 12 26 22
34 22 9 0 23 3 32 6 13 6 14 9 3 16 -9 7 -8 9 7 5 15 -3 21 1 22 14 1 11 -5
19 -15 20 -11 0 -12 3 -4 6 6 2 12 11 12 19 0 22 -86 19 -100 -3 -11 -17 -11
-17 -6 0 5 15 -2 17 -54 17 l-59 0 -3 -106 c-2 -58 0 -108 4 -110 3 -2 4 -14
0 -26 -4 -16 -2 -19 9 -13 11 6 11 5 3 -4 -7 -8 -8 -27 -4 -50 4 -21 5 -64 2
-96 -4 -47 -2 -56 9 -50 11 6 12 5 2 -6 -7 -7 -13 -24 -13 -38 0 -21 2 -23 10
-11 8 13 10 12 11 -5 2 -35 4 -40 14 -42 6 -1 9 6 7 17 -2 11 4 20 15 23 16 4
16 5 -1 6 -20 1 -20 1 0 17 10 8 13 13 7 9 -10 -4 -13 7 -13 42 1 44 2 46 13
25 7 -12 16 -20 20 -16 4 4 4 -13 0 -37 -3 -24 -6 -49 -6 -56 0 -7 -5 -9 -11
-6 -6 3 -6 1 1 -7 14 -15 6 -40 -13 -40 -8 0 -37 17 -64 37 l-50 37 0 253 0
253 -437 0 c-347 -1 -434 -3 -421 -13 9 -7 49 -34 89 -62 44 -31 103 -86 153
-145 44 -52 83 -97 86 -100 18 -18 101 -113 130 -149 19 -24 40 -49 45 -55 6
-6 23 -28 38 -48 23 -32 25 -38 11 -38 -16 0 -16 -2 1 -20 10 -11 16 -20 14
-21 -2 0 -12 -2 -22 -4 -9 -2 -15 0 -12 5 3 4 -2 13 -10 20 -13 11 -14 10 -9
-5 6 -15 3 -17 -14 -13 -22 6 -35 -4 -38 -31 -2 -7 -12 -23 -23 -35 -21 -23
-28 -42 -12 -32 5 4 4 -5 -2 -19 -15 -31 -57 -35 -57 -6 0 11 8 22 18 24 15 4
15 5 0 6 -9 0 -20 -3 -23 -9 -3 -5 -19 -10 -34 -10 -27 0 -57 -21 -46 -32 3
-2 -1 -5 -9 -5 -9 0 -13 10 -12 28 2 24 0 26 -16 18 -10 -5 -18 -6 -17 -2 3
20 -2 23 -21 13 -11 -6 -19 -7 -18 -1 2 5 -1 10 -7 11 -5 1 -18 8 -27 17 -9 8
-22 12 -29 7 -9 -5 -10 -2 -6 9 8 20 -4 22 -22 5 -11 -11 -11 -9 -2 10 7 12
17 20 23 16 7 -4 8 -2 4 5 -6 9 -14 8 -33 -4 -14 -10 -22 -12 -19 -6 4 6 3 11
-2 11 -12 0 -34 -25 -27 -31 2 -3 -5 -5 -16 -6 -16 -2 -12 5 17 28 20 16 33
29 28 29 -5 0 -2 5 6 10 12 7 8 11 -16 16 -22 4 -31 11 -29 23 1 9 -2 24 -7
34 -6 12 -5 17 4 17 9 0 9 3 -2 10 -8 5 -11 10 -7 10 4 0 -4 10 -18 23 l-26
22 -4 215 c-3 118 -5 225 -5 238 0 21 -4 22 -84 22 -65 0 -85 -3 -90 -15 -3
-8 -12 -15 -19 -15 -8 0 -20 7 -27 15 -7 8 -29 15 -50 15 l-37 0 -7 -69 c-6
-57 -10 -70 -27 -74 -16 -4 -19 0 -20 31 -1 21 -2 42 -4 47 -1 6 -3 22 -3 38
-2 24 -6 27 -37 27 l-35 0 0 -191z m210 101 c0 -5 -5 -10 -11 -10 -5 0 -7 5
-4 10 3 6 8 10 11 10 2 0 4 -4 4 -10z m3020 -67 c-18 -21 -56 -63 -84 -94 -28
-30 -105 -118 -171 -194 -66 -76 -145 -165 -177 -199 l-56 -61 -54 23 c-29 13
-86 35 -127 50 l-73 27 35 30 c42 36 234 175 242 175 3 0 29 15 58 33 29 18
59 36 67 40 8 4 35 20 60 35 25 15 77 44 115 66 39 21 95 53 125 71 72 43 79
43 40 -2z m-2870 2 c0 -8 -7 -15 -15 -15 -8 0 -15 7 -15 15 0 8 7 15 15 15 8
0 15 -7 15 -15z m-190 -9 c0 -21 -21 -31 -30 -15 -5 7 -6 17 -4 21 9 14 34 9
34 -6z m-80 -6 c0 -5 -5 -10 -11 -10 -5 0 -7 5 -4 10 3 6 8 10 11 10 2 0 4 -4
4 -10z m1022 -90 l-7 -44 -28 29 c-16 17 -27 23 -25 15 2 -8 8 -18 13 -22 7
-5 6 -8 -1 -8 -6 0 -20 10 -32 23 -15 16 -18 27 -12 37 5 8 10 10 10 4 0 -6 7
-11 15 -11 8 0 11 5 8 10 -4 6 5 8 20 5 21 -4 28 0 34 16 11 33 14 -2 5 -54z
m-1052 -5 c0 -8 -4 -15 -10 -15 -5 0 -10 7 -10 15 0 8 5 15 10 15 6 0 10 -7
10 -15z m1391 -71 c-5 -16 -10 -21 -10 -12 -1 18 10 51 15 45 2 -1 -1 -16 -5
-33z m-1381 -19 c0 -8 -7 -15 -15 -15 -8 0 -15 7 -15 15 0 8 7 15 15 15 8 0
15 -7 15 -15z m164 -4 c3 -5 -1 -14 -8 -20 -16 -13 -32 2 -21 19 8 12 22 13
29 1z m-164 -211 c0 -5 -4 -10 -10 -10 -5 0 -10 5 -10 10 0 6 5 10 10 10 6 0
10 -4 10 -10z m427 -6 c-3 -3 -12 -4 -19 -1 -8 3 -5 6 6 6 11 1 17 -2 13 -5z
m1523 -704 l0 -680 -133 0 -133 0 -22 73 c-21 70 -22 86 -22 672 0 330 0 603
0 608 0 4 70 7 155 7 l155 0 0 -680z m293 658 l67 -10 0 -544 0 -544 -35 -55
c-20 -30 -43 -84 -53 -120 l-17 -65 -112 0 -113 0 0 680 0 680 98 -5 c53 -4
127 -11 165 -17z m-743 -7 c0 -10 8 -22 18 -26 14 -5 15 -4 5 6 -14 14 -17 29
-5 29 14 0 29 -47 20 -64 -8 -14 -13 -15 -24 -5 -12 10 -14 7 -12 -19 1 -17 6
-28 10 -26 4 3 8 -6 8 -20 0 -14 5 -26 10 -26 6 0 10 -9 10 -21 0 -11 -4 -17
-10 -14 -5 3 -10 -1 -10 -10 0 -9 -4 -13 -10 -10 -6 4 -10 -28 -10 -89 0 -53
4 -98 10 -101 6 -4 7 -11 4 -17 -4 -5 -7 -31 -7 -56 0 -36 4 -47 19 -53 14 -5
15 -8 4 -8 -10 -1 -16 -11 -17 -28 0 -16 -3 -104 -6 -198 -3 -93 -6 -171 -7
-172 -7 -8 -5 -30 3 -40 5 -7 6 -13 2 -13 -5 0 0 -10 11 -22 17 -20 16 -19
-16 3 -19 13 -37 27 -40 30 -3 3 -15 11 -28 18 l-22 12 2 472 3 472 35 6 c19
4 38 7 43 8 4 0 7 -8 7 -18z m955 -30 c98 -32 148 -58 140 -72 -4 -5 5 -9 18
-9 35 0 39 -9 15 -44 l-22 -31 25 20 c13 11 21 16 17 11 -4 -5 -2 -16 5 -24 8
-11 8 -14 0 -9 -6 4 -14 3 -17 -2 -7 -10 13 -9 31 2 6 4 15 2 19 -4 5 -8 3 -9
-7 -4 -8 5 -11 5 -7 0 4 -4 2 -15 -4 -24 -7 -9 -8 -13 -4 -9 5 4 16 2 25 -5
14 -10 14 -10 4 4 -11 13 -10 19 5 32 17 15 19 15 34 -2 9 -11 13 -23 10 -27
-4 -5 0 -3 8 3 10 8 21 9 30 3 8 -6 11 -10 5 -10 -5 0 -4 -4 4 -9 8 -5 22 -8
32 -6 11 2 16 -1 13 -8 -5 -13 -78 -61 -109 -73 -11 -4 -86 -47 -168 -96 -81
-48 -151 -88 -154 -88 -2 0 -18 -9 -34 -21 l-29 -20 0 274 0 274 43 -8 c23 -4
56 -13 72 -18z m-1540 -3 c5 4 5 1 1 -6 -6 -9 -11 -10 -20 -3 -7 6 -17 7 -21
3 -5 -4 -5 -1 -1 6 6 9 11 10 20 3 7 -6 17 -7 21 -3z m2845 -48 c0 -18 -7 -20
-72 -20 -40 0 -103 -3 -140 -6 -90 -9 -138 1 -138 26 0 19 8 20 175 20 168 0
175 -1 175 -20z m-2207 1 c5 -1 6 -5 3 -10 -7 -11 -46 -3 -46 9 0 5 8 7 18 5
9 -2 21 -4 25 -4z m-1123 -5 c0 -3 -4 -8 -10 -11 -5 -3 -10 -1 -10 4 0 6 5 11
10 11 6 0 10 -2 10 -4z m50 -1 c0 -7 -30 -13 -34 -7 -3 4 4 9 15 9 10 1 19 0
19 -2z m1129 -247 c-1 -139 -4 -244 -6 -233 -3 11 -10 26 -17 34 -8 12 -8 13
2 7 18 -11 16 39 -3 54 -20 17 -19 37 3 50 15 9 14 10 -5 5 -20 -6 -23 -3 -23
24 0 17 5 31 12 31 6 0 4 6 -6 13 -17 12 -17 14 1 28 16 13 17 13 4 -3 -9 -12
-10 -18 -2 -18 6 0 11 5 11 11 0 5 6 7 13 3 7 -4 6 1 -3 12 -9 10 -15 28 -15
39 0 11 -3 23 -8 26 -5 4 -9 26 -10 50 -1 25 -8 49 -17 56 -13 11 -12 14 5 26
23 17 41 19 38 6 -2 -5 2 -9 7 -9 6 0 10 9 10 20 0 11 2 20 5 20 3 0 4 -114 4
-252z m2154 191 c5 -17 -1 -651 -6 -655 -1 -1 -26 -4 -56 -6 -32 -2 -56 -8
-59 -15 -2 -7 3 -13 12 -13 8 0 18 -5 21 -10 4 -6 1 -9 -7 -8 -8 2 -13 -7 -14
-23 -1 -14 -4 -48 -7 -75 -4 -27 -7 -114 -8 -194 -3 -213 -7 -252 -28 -247 -9
2 -15 9 -13 15 6 29 -18 446 -26 451 -4 3 -16 17 -25 31 -9 13 -17 18 -17 11
0 -11 -4 -11 -18 2 -10 9 -27 15 -38 13 -15 -3 -26 5 -38 25 -15 25 -18 72
-23 358 -3 181 -3 337 1 346 5 14 28 16 175 14 156 -2 170 -3 174 -20z m84
-11 c-3 -7 -5 -2 -5 12 0 14 2 19 5 13 2 -7 2 -19 0 -25z m0 -40 c-3 -8 -6 -5
-6 6 -1 11 2 17 5 13 3 -3 4 -12 1 -19z m-3060 -64 c-3 -3 -12 -4 -19 -1 -8 3
-5 6 6 6 11 1 17 -2 13 -5z m150 -50 c54 -26 134 -63 178 -84 44 -21 124 -58
178 -84 l97 -47 0 -204 0 -204 -57 27 c-52 24 -70 26 -178 27 -127 0 -158 -7
-260 -59 -27 -14 -65 -38 -82 -52 -26 -21 -33 -23 -33 -10 0 9 -8 16 -17 16
-9 0 -14 3 -10 6 3 3 -7 20 -23 38 -17 17 -30 34 -30 37 0 4 -7 10 -16 13 -12
5 -14 3 -8 -7 5 -7 1 -4 -9 7 -10 10 -16 25 -13 32 3 7 0 16 -6 20 -6 4 -8 3
-5 -3 10 -16 -16 -33 -46 -31 -19 2 -24 7 -21 23 3 18 1 17 -16 -5 l-19 -25 2
29 c2 23 -2 30 -21 32 -21 4 -22 3 -8 -12 20 -19 20 -21 1 -21 -8 0 -12 3 -10
7 3 4 -4 15 -15 25 -11 10 -20 14 -21 9 0 -11 -16 27 -17 41 0 6 4 9 9 8 4 -2
6 4 3 12 -7 16 60 136 128 230 40 56 228 255 241 255 3 0 50 -21 104 -46z
m2893 -4 c0 -11 -4 -20 -9 -20 -5 0 -7 9 -4 20 3 11 7 20 9 20 2 0 4 -9 4 -20z
m27 -17 c-3 -10 -5 -4 -5 12 0 17 2 24 5 18 2 -7 2 -21 0 -30z m-2340 -15 c-3
-7 -5 -2 -5 12 0 14 2 19 5 13 2 -7 2 -19 0 -25z m-1257 -68 c3 56 4 59 7 20
2 -25 6 -56 9 -70 l6 -25 14 28 c19 34 29 29 32 -17 l3 -35 -50 1 c-40 0 -50
4 -54 19 -3 10 -1 19 4 19 5 0 10 28 11 63 l1 62 7 -65 7 -65 3 65z m64 44
c11 -30 6 -61 -10 -61 -12 0 -15 8 -12 33 3 24 0 35 -12 38 -9 2 -7 4 6 5 12
0 25 -6 28 -15z m3533 -21 c-3 -10 -5 -4 -5 12 0 17 2 24 5 18 2 -7 2 -21 0
-30z m-3630 -40 c-2 -16 -4 -5 -4 22 0 28 2 40 4 28 2 -13 2 -35 0 -50z m3660
-70 c-2 -27 -3 -5 -3 47 0 52 1 74 3 48 2 -27 2 -69 0 -95z m-3600 65 c-2 -13
-4 -5 -4 17 -1 22 1 32 4 23 2 -10 2 -28 0 -40z m3573 -93 c-4 -28 -5 -28 -10
10 -3 22 -3 56 0 75 4 35 4 35 10 -10 3 -25 3 -58 0 -75z m-3883 13 c-3 -8 -6
-5 -6 6 -1 11 2 17 5 13 3 -3 4 -12 1 -19z m353 -184 l0 -154 -50 0 -50 0 0
158 0 157 50 -3 50 -4 0 -154z m-359 86 c6 0 7 -4 4 -10 -13 -21 -25 -9 -24
23 1 23 3 26 6 10 2 -13 9 -23 14 -23z m6 18 c-3 -8 -6 -5 -6 6 -1 11 2 17 5
13 3 -3 4 -12 1 -19z m1630 -95 c-2 -21 -4 -6 -4 32 0 39 2 55 4 38 2 -18 2
-50 0 -70z m0 -155 c-3 -7 -5 -2 -5 12 0 14 2 19 5 13 2 -7 2 -19 0 -25z
m2153 3 c0 -15 -27 -20 -40 -8 -10 9 -11 9 -6 0 3 -6 2 -14 -3 -17 -5 -3 -11
3 -14 14 -4 17 0 20 29 20 19 0 34 -4 34 -9z m-256 -47 c3 -8 2 -12 -4 -9 -6
3 -10 10 -10 16 0 14 7 11 14 -7z m28 -26 c-7 -7 -12 -8 -12 -2 0 14 12 26 19
19 2 -3 -1 -11 -7 -17z m-1925 -140 c-3 -8 -6 -5 -6 6 -1 11 2 17 5 13 3 -3 4
-12 1 -19z m3 -39 c0 -11 -4 -18 -10 -14 -5 3 -7 12 -3 20 7 21 13 19 13 -6z
m-493 -51 c46 -43 17 -111 -48 -111 -35 0 -55 17 -64 55 -5 21 -1 33 19 52 31
32 62 33 93 4z m1533 2 c20 -20 26 -65 12 -86 -4 -6 -18 -17 -30 -23 -51 -27
-119 38 -93 88 24 43 78 54 111 21z m360 -115 c0 6 4 4 9 -4 5 -8 28 -14 59
-14 28 -1 48 -5 46 -9 -3 -4 0 -8 5 -8 7 0 11 -25 11 -61 0 -127 -96 -264
-227 -324 -114 -52 -284 -54 -395 -5 -87 38 -178 122 -180 167 -1 29 10 74 22
88 7 8 9 19 5 25 -3 5 -2 10 2 10 5 0 9 9 10 20 1 11 -2 18 -6 16 -19 -12 -5
26 17 46 14 13 22 17 18 11 -4 -7 -3 -13 3 -13 6 0 15 -19 22 -42 36 -136 148
-223 284 -223 85 1 147 27 200 87 53 59 74 112 75 188 0 46 3 61 10 50 5 -8
10 -10 10 -5z m-1822 -38 c2 -10 -3 -17 -12 -17 -18 0 -29 16 -21 31 9 14 29
6 33 -14z m1528 12 c10 -17 -13 -36 -27 -22 -12 12 -4 33 11 33 5 0 12 -5 16
-11z m-1789 -144 c27 -50 75 -97 133 -127 36 -18 61 -23 125 -23 70 0 86 4
129 29 27 16 60 41 73 55 30 33 73 115 73 138 1 43 16 46 60 14 24 -17 40 -31
35 -31 -4 0 -2 -7 6 -16 7 -8 21 -13 32 -10 16 4 18 1 12 -22 -15 -62 -58
-136 -104 -181 -135 -130 -342 -158 -526 -70 -68 32 -149 105 -141 126 3 8 2
11 -3 8 -16 -10 -21 12 -6 25 11 9 12 17 4 32 -6 11 -7 18 -1 14 5 -3 9 10 9
32 0 69 2 83 15 76 8 -5 9 0 6 14 -4 12 -2 20 2 17 5 -3 12 0 16 7 4 7 12 -4
19 -28 6 -21 21 -57 32 -79z m-243 15 c26 -93 91 -180 185 -248 24 -18 50 -41
58 -52 13 -19 13 -19 -28 -5 -56 20 -60 13 -7 -14 50 -25 38 -28 -18 -5 -22 9
-34 11 -28 5 6 -7 33 -20 60 -31 27 -10 43 -19 36 -20 -7 0 -29 7 -49 15 -50
21 -75 18 -33 -4 l35 -19 -60 5 c-33 3 -66 10 -74 16 -12 10 -13 9 -6 -2 6
-11 4 -13 -8 -8 -10 4 -17 1 -18 -6 0 -7 -4 -3 -8 8 -5 13 -3 24 7 31 12 9 12
13 2 19 -9 6 -11 4 -5 -5 6 -10 4 -12 -8 -7 -10 4 -16 2 -14 -5 1 -7 -4 -13
-10 -14 -7 -1 -16 -2 -20 -3 -3 0 4 -12 17 -26 21 -23 20 -30 -3 -26 -5 1 -6
-3 -2 -9 5 -8 11 -8 19 -1 9 8 18 6 30 -8 17 -19 17 -19 -5 -14 -17 5 -20 3
-14 -8 7 -11 6 -12 -6 -2 -13 10 -16 10 -16 -2 0 -8 5 -15 10 -15 6 0 7 -3 4
-6 -3 -4 -1 -16 5 -28 14 -27 30 -42 -194 179 l-192 190 -6 75 c-10 119 -24
110 175 110 l172 0 17 -60z m675 50 c10 0 24 -15 33 -37 16 -35 16 -38 -2 -64
-27 -36 -105 -87 -147 -95 -42 -8 -125 1 -153 16 -19 10 -19 13 -5 40 9 17 15
32 15 35 -1 33 2 35 44 35 33 0 56 8 95 34 59 40 72 46 89 40 8 -2 21 -4 31
-4z m591 -285 l0 -295 -125 0 -124 0 -3 295 -3 295 128 0 127 0 0 -295z m973
275 c28 -34 21 -66 -25 -111 -56 -54 -110 -79 -176 -79 -53 0 -114 19 -126 39
-4 5 1 27 11 48 17 36 21 38 73 43 52 5 91 23 134 62 27 25 87 23 109 -2z
m994 -92 c-2 -13 -4 -5 -4 17 -1 22 1 32 4 23 2 -10 2 -28 0 -40z m-1327 2
c-13 -30 -24 -37 -34 -21 -7 10 34 65 41 57 3 -3 0 -19 -7 -36z m-255 1 c3 -5
2 -12 -3 -15 -5 -3 -9 1 -9 9 0 17 3 19 12 6z m-1851 -280 l148 -148 -23 -23
c-13 -13 -17 -20 -9 -16 8 4 6 0 -4 -8 -11 -9 -16 -16 -12 -16 5 0 3 -7 -4
-15 -7 -8 -21 -15 -32 -15 -10 0 -17 -4 -13 -9 3 -5 1 -12 -5 -16 -5 -3 -10 0
-10 7 0 10 -2 10 -8 0 -21 -32 -112 156 -157 323 -7 28 -17 58 -20 68 -4 9 -5
17 -3 17 2 0 70 -67 152 -149z m1196 -166 c0 -189 -3 -245 -12 -245 -31 0
-289 48 -390 71 l-86 21 -27 62 c-15 33 -45 95 -65 137 -64 129 -69 120 57
113 109 -6 177 5 438 71 93 24 85 47 85 -230z m675 209 c39 -8 99 -22 135 -29
118 -26 218 -38 278 -33 l60 4 -18 -35 c-17 -33 -36 -74 -101 -218 -22 -48
-28 -54 -74 -68 -47 -14 -277 -53 -372 -63 l-43 -4 0 237 0 237 33 -7 c17 -3
64 -13 102 -21z m-1648 -81 c0 -9 -4 -10 -14 -2 -7 6 -13 12 -13 14 0 1 6 2
13 2 8 0 14 -6 14 -14z m1130 -179 c-3 -3 -12 -4 -19 -1 -8 3 -5 6 6 6 11 1
17 -2 13 -5z m11 -21 c-15 -2 -42 -2 -60 0 -18 2 -6 4 27 4 33 0 48 -2 33 -4z
m59 1 c-3 -3 -12 -4 -19 -1 -8 3 -5 6 6 6 11 1 17 -2 13 -5z m289 -131 c-3
-76 -5 -146 -6 -155 0 -16 -12 -18 -110 -18 l-110 0 0 48 0 47 112 107 c62 59
115 107 116 108 2 0 1 -62 -2 -137z m-462 105 c12 -13 61 -59 109 -102 87 -79
87 -79 87 -128 l0 -48 -115 0 -115 0 0 150 c0 83 3 150 6 150 4 0 16 -10 28
-22z m1936 -223 c0 -8 -7 -15 -15 -15 -16 0 -20 12 -8 23 11 12 23 8 23 -8z
m150 -39 c0 -2 -9 -6 -20 -9 -11 -3 -18 -1 -14 4 5 9 34 13 34 5z m37 -2 c-3
-3 -12 -4 -19 -1 -8 3 -5 6 6 6 11 1 17 -2 13 -5z m10 -20 c-3 -3 -12 -4 -19
-1 -8 3 -5 6 6 6 11 1 17 -2 13 -5z m-72 -14 c-3 -5 2 -11 12 -11 17 -1 17 -2
1 -6 -22 -6 -24 -23 -2 -23 20 0 9 -16 -16 -23 -11 -3 -17 -1 -14 4 3 5 -2 12
-12 16 -14 5 -13 8 7 19 22 12 22 13 4 14 -17 0 -17 2 -5 10 20 13 33 13 25 0z
m-1865 -19 c0 -25 -58 -85 -107 -109 -21 -11 -57 -23 -80 -27 l-43 -7 0 81 0
81 115 0 c107 0 115 -1 115 -19z m238 -31 c2 -25 7 -49 13 -54 5 -6 9 -21 9
-34 0 -21 -3 -23 -32 -17 -43 10 -107 42 -136 69 -22 19 -52 67 -52 81 0 4 44
5 98 3 l97 -3 3 -45z m1440 18 c3 -22 -2 -29 -22 -34 -32 -8 -46 1 -46 30 0
30 9 38 40 34 19 -2 26 -10 28 -30z m-108 -8 c0 -13 -7 -20 -20 -20 -19 0 -27
20 -13 33 13 14 33 6 33 -13z m40 -26 c11 -12 10 -18 -3 -32 -16 -15 -18 -15
-34 0 -13 14 -14 20 -3 32 7 9 16 16 20 16 4 0 13 -7 20 -16z m295 -4 c-3 -5
1 -10 10 -10 10 0 13 5 9 12 -4 7 -3 8 5 4 16 -10 4 -26 -20 -26 -19 0 -25 11
-12 23 10 10 15 8 8 -3z m-425 -38 c0 -13 -12 -22 -22 -16 -10 6 -1 24 13 24
5 0 9 -4 9 -8z m-337 -52 c0 -16 5 -30 11 -30 6 0 6 -4 -1 -11 -11 -11 -11
-19 4 -56 3 -10 7 -25 9 -34 2 -8 8 -26 13 -40 8 -20 10 -21 10 -5 1 11 4 16
8 13 3 -4 12 -2 20 4 7 6 13 8 13 5 0 -4 7 -1 15 8 17 16 20 30 5 21 -5 -3 -7
0 -4 8 7 18 45 15 58 -5 14 -23 -10 -50 -37 -42 -14 4 -17 3 -12 -6 4 -7 1
-16 -6 -21 -11 -7 -11 -9 -1 -9 7 0 11 -4 7 -9 -3 -5 -1 -12 5 -16 10 -6 14 7
11 33 -1 6 7 12 18 12 11 0 24 8 30 17 12 23 21 13 24 -23 2 -26 -1 -29 -25
-26 -26 2 -55 -26 -71 -72 -6 -16 -4 -17 19 -12 17 5 23 3 19 -4 -3 -5 -2 -10
3 -10 6 0 13 12 17 27 6 26 7 27 18 8 19 -33 17 -45 -9 -45 -13 0 -24 -3 -24
-8 0 -4 -11 -19 -25 -34 -26 -28 -58 -29 -48 0 5 11 2 14 -10 9 -10 -4 -17 0
-19 11 -3 12 -6 14 -11 5 -11 -17 45 -73 74 -74 70 -4 -74 -17 -187 -18 -127
-1 -134 0 -198 30 -36 17 -68 35 -72 40 -3 5 -13 9 -23 9 -13 0 -20 10 -25 37
-5 32 -2 41 16 55 13 9 26 14 30 12 4 -3 8 2 8 11 0 9 5 13 10 10 6 -3 10 -2
10 4 0 6 6 8 14 5 7 -3 16 2 19 10 7 17 -9 13 -71 -19 -31 -16 -34 -16 -59 0
l-26 18 24 13 c33 18 44 17 25 -2 -17 -16 -13 -34 7 -34 7 0 6 4 -3 10 -13 9
-13 10 0 11 8 1 24 1 35 0 15 -1 17 0 7 7 -11 7 -10 10 3 15 10 5 14 3 9 -4
-4 -7 -2 -9 7 -5 8 3 22 9 32 12 9 4 18 10 18 15 1 5 2 12 4 17 16 59 19 63
105 112 48 27 92 50 99 50 6 0 11 4 11 8 0 14 44 31 54 21 5 -4 9 -22 9 -39z
m565 12 c8 -10 11 -31 8 -52 -3 -19 -5 -38 -6 -41 0 -12 -54 -31 -58 -20 -2 6
-14 11 -27 11 -12 0 -28 7 -35 15 -9 11 -10 15 -1 15 7 0 11 10 9 24 -4 33 20
60 40 44 13 -11 14 -10 7 11 -7 22 -5 23 21 17 16 -4 35 -15 42 -24z m-190
-73 c-2 -6 -8 -10 -13 -10 -5 0 -11 4 -13 10 -2 6 4 11 13 11 9 0 15 -5 13
-11z m-648 -43 c0 -3 -4 -8 -10 -11 -5 -3 -10 -1 -10 4 0 6 5 11 10 11 6 0 10
-2 10 -4z m920 -26 c25 -25 25 -32 2 -60 -15 -18 -25 -22 -46 -16 -46 11 -55
69 -12 86 31 13 34 12 56 -10z m-934 -17 c-2 -9 -9 -19 -17 -21 -11 -3 -11 -1
1 7 11 8 12 11 2 11 -7 0 -10 5 -7 10 10 16 23 12 21 -7z m608 -9 c14 -15 26
-30 26 -33 0 -15 -42 -51 -58 -51 -14 0 -14 2 -3 9 10 7 4 9 -20 8 -33 -2 -34
-1 -31 32 2 33 24 60 48 61 6 0 23 -12 38 -26z m-724 -2 c0 -19 -27 -32 -64
-32 l-41 1 38 14 c21 7 41 16 44 19 9 9 23 7 23 -2z m75 -2 c-3 -5 -11 -10
-16 -10 -6 0 -7 5 -4 10 3 6 11 10 16 10 6 0 7 -4 4 -10z m-215 -60 c-13 -8
-12 -10 3 -10 10 0 16 -4 13 -9 -8 -12 -59 -8 -64 7 -2 8 2 10 14 5 11 -4 15
-3 11 5 -4 6 1 12 10 14 24 6 31 -1 13 -12z m87 14 c-3 -3 -12 -4 -19 -1 -8 3
-5 6 6 6 11 1 17 -2 13 -5z m-1152 -40 c39 -8 79 -16 91 -19 18 -4 21 -13 23
-71 l2 -66 -28 6 c-46 11 -147 63 -171 89 -12 12 -25 38 -28 57 -7 31 -6 33
17 26 13 -4 56 -13 94 -22z m1130 6 c3 -5 -1 -10 -9 -10 -9 0 -16 5 -16 10 0
6 4 10 9 10 6 0 13 -4 16 -10z m745 -165 c0 -6 -11 -12 -25 -13 -23 -2 -24 0
-15 18 7 14 7 20 0 20 -5 0 -10 5 -10 10 0 14 49 -22 50 -35z m-3002 -197 l-3
-153 -102 -3 -103 -3 0 156 0 155 105 0 106 0 -3 -152z m442 129 c-30 -11
-106 -48 -169 -80 -88 -45 -116 -55 -122 -45 -7 10 -9 10 -10 -2 -1 -8 0 -19
1 -25 1 -5 -2 -7 -6 -2 -4 4 -18 0 -30 -8 -13 -8 -31 -12 -40 -8 -12 4 -15 2
-12 -8 3 -8 10 -14 16 -14 5 0 14 -3 18 -7 4 -5 0 -8 -8 -8 -10 0 -15 -9 -15
-26 0 -14 -5 -30 -9 -34 -6 -6 -11 16 -12 53 -1 34 -5 101 -8 148 l-5 86 233
1 233 1 -55 -22z m2236 14 c28 -1 59 -8 70 -16 18 -14 18 -16 1 -26 -9 -5 -14
-15 -11 -21 4 -6 3 -9 -2 -6 -5 3 -39 20 -76 37 -68 32 -83 42 -50 36 9 -2 40
-4 68 -4z m299 -11 c0 -9 -10 -15 -27 -16 -21 -1 -28 4 -28 18 0 15 6 19 28
16 16 -2 27 -9 27 -18z m-304 -86 c125 -64 215 -133 234 -179 15 -33 7 -93
-14 -119 -34 -41 -131 -59 -180 -33 -31 16 -50 54 -107 212 -51 145 -60 175
-49 175 3 0 56 -25 116 -56z m-2198 7 c-3 -14 -8 -30 -12 -36 -3 -5 -6 -12 -7
-15 -6 -34 -18 -59 -25 -54 -5 3 -6 -1 -3 -9 6 -16 -51 -84 -58 -70 -3 4 -3 3
-2 -4 4 -15 -20 -35 -30 -25 -4 4 -7 2 -6 -3 5 -24 -1 -34 -20 -30 -16 3 -20
-2 -20 -21 0 -14 -4 -23 -9 -19 -6 3 -8 -4 -6 -15 4 -20 -20 -40 -49 -40 -22
0 -84 62 -91 93 -4 15 -4 38 -1 52 11 45 95 113 209 169 124 61 139 64 130 27z
m1162 -51 c3 -6 -1 -7 -9 -4 -18 7 -21 14 -7 14 6 0 13 -4 16 -10z m-929 -58
c-4 -3 -14 2 -24 12 -16 18 -16 18 6 6 13 -6 21 -14 18 -18z m-716 -133 c0 -7
-14 -8 -40 -4 -34 6 -40 4 -41 -12 0 -16 -1 -16 -9 2 -8 19 -9 19 -9 -2 -1
-32 -31 -30 -31 2 0 24 2 25 65 25 40 0 65 -4 65 -11z m-83 -61 c-3 -8 -6 -5
-6 6 -1 11 2 17 5 13 3 -3 4 -12 1 -19z"/>
<path d="M1571 3194 c0 -11 3 -14 6 -6 3 7 2 16 -1 19 -3 4 -6 -2 -5 -13z"/>
<path d="M2677 3233 c6 -16 8 -16 23 1 9 12 8 15 -8 13 -12 0 -18 -6 -15 -14z"/>
<path d="M2776 3171 c-3 -5 2 -15 12 -22 15 -12 16 -12 5 2 -7 9 -10 19 -6 22
3 4 4 7 0 7 -3 0 -8 -4 -11 -9z"/>
<path d="M1624 3248 c-10 -12 -14 -18 -8 -15 11 6 29 -18 26 -34 0 -3 6 -6 13
-6 10 0 12 4 5 12 -6 7 -5 16 2 23 9 9 8 12 -6 12 -12 0 -16 5 -12 15 8 21 2
19 -20 -7z"/>
<path d="M1656 2932 c-2 -4 -1 -14 4 -22 7 -11 9 -9 7 8 -1 24 -3 26 -11 14z"/>
<path d="M3539 2543 c-13 -16 -12 -17 4 -4 10 8 17 9 17 3 0 -7 11 -7 35 -1
19 6 40 7 45 4 6 -3 10 -1 10 4 0 19 -96 13 -111 -6z"/>
<path d="M2450 2045 c-9 -10 -9 -15 -1 -15 6 0 11 5 11 11 0 5 5 7 12 3 7 -4
8 -3 4 4 -9 15 -11 15 -26 -3z"/>
<path d="M3200 721 c0 -6 4 -13 10 -16 6 -3 7 1 4 9 -7 18 -14 21 -14 7z"/>
<path d="M3091 621 c-6 -10 -7 -21 -4 -25 13 -12 21 -5 21 19 0 30 -4 31 -17
6z"/>
<path d="M3041 535 c4 -3 19 -8 35 -11 16 -3 26 -2 23 1 -4 3 -19 8 -35 11
-16 3 -26 2 -23 -1z"/>
<path d="M3055 500 c-3 -5 -1 -10 4 -10 6 0 11 5 11 10 0 6 -2 10 -4 10 -3 0
-8 -4 -11 -10z"/>
<path d="M3080 502 c0 -5 7 -9 15 -9 8 0 15 4 15 9 0 4 -7 8 -15 8 -8 0 -15
-4 -15 -8z"/>
<path d="M3650 852 c0 -14 7 -19 23 -18 12 1 22 7 22 16 0 8 -10 16 -22 18
-17 3 -23 -2 -23 -16z"/>
<path d="M545 340 c-3 -5 -1 -10 4 -10 6 0 11 5 11 10 0 6 -2 10 -4 10 -3 0
-8 -4 -11 -10z"/>
<path d="M463 293 c0 -9 4 -10 14 -2 7 6 13 12 13 14 0 1 -6 2 -13 2 -8 0 -14
-6 -14 -14z"/>
<path d="M1630 3980 c0 -10 11 -31 25 -45 14 -14 22 -25 17 -25 -5 0 -12 -11
-14 -24 -4 -22 -3 -23 19 -15 36 14 45 11 38 -11 -10 -31 46 -40 122 -21 24 6
46 11 50 10 23 -4 35 3 29 16 -3 8 -1 15 5 15 20 0 3 24 -22 31 l-24 7 24 1
c20 1 21 3 11 16 -10 12 -9 15 6 16 11 0 14 3 7 6 -7 2 -13 13 -13 24 0 18 -9
19 -140 19 -132 0 -140 -1 -140 -20z m195 -110 c3 -5 1 -10 -4 -10 -6 0 -11 5
-11 10 0 6 2 10 4 10 3 0 8 -4 11 -10z"/>
<path d="M1591 3901 c-7 -5 -11 -15 -9 -22 3 -10 8 -7 17 9 13 24 12 26 -8 13z"/>
<path d="M1875 3820 c4 -13 2 -20 -7 -20 -8 0 -9 -3 -3 -8 6 -4 12 -20 14 -37
1 -16 5 -32 8 -35 3 -3 3 10 2 28 -3 21 1 36 11 42 13 9 13 11 0 20 -13 8 -12
10 4 10 24 0 13 13 -15 17 -16 2 -19 -1 -14 -17z"/>
<path d="M3893 3670 c0 -25 2 -35 4 -22 2 12 2 32 0 45 -2 12 -4 2 -4 -23z"/>
<path d="M1822 3630 c0 -14 2 -19 5 -12 2 6 2 18 0 25 -3 6 -5 1 -5 -13z"/>
<path d="M657 3315 c-17 -14 -24 -26 -18 -30 6 -3 11 -3 11 1 0 3 7 1 15 -6 9
-7 18 -10 22 -7 3 4 13 1 21 -6 13 -10 14 -9 4 10 -14 26 -15 36 -4 29 5 -3 9
1 9 9 0 8 -3 13 -5 10 -3 -3 -10 -1 -17 5 -7 6 -20 1 -38 -15z m31 -15 c-7
-10 -16 -16 -21 -13 -5 3 -2 10 7 15 9 5 13 14 10 20 -4 7 -2 8 4 4 9 -5 9
-12 0 -26z"/>
<path d="M124 3200 c0 -69 1 -97 3 -62 2 34 2 90 0 125 -2 34 -3 6 -3 -63z"/>
<path d="M123 2585 c0 -8 4 -12 9 -9 4 3 8 9 8 15 0 5 -4 9 -8 9 -5 0 -9 -7
-9 -15z"/>
<path d="M67 2333 c-10 -9 -8 -711 1 -717 5 -3 9 3 10 12 3 46 2 706 -1 709
-2 2 -7 0 -10 -4z"/>
<path d="M4 1750 c0 -58 1 -81 3 -52 2 28 2 76 0 105 -2 28 -3 5 -3 -53z"/>
<path d="M3960 749 c0 -5 5 -7 10 -4 6 3 10 8 10 11 0 2 -4 4 -10 4 -5 0 -10
-5 -10 -11z"/>
<path d="M450 580 c0 -15 5 -20 18 -18 9 2 17 10 17 18 0 8 -8 16 -17 18 -13
2 -18 -3 -18 -18z"/>
<path d="M3955 590 c4 -6 11 -8 16 -5 14 9 11 15 -7 15 -8 0 -12 -5 -9 -10z"/>
<path d="M2236 17 c3 -10 9 -15 12 -12 3 3 0 11 -7 18 -10 9 -11 8 -5 -6z"/>
</g>
</svg>
